<?xml version="1.0" standalone="no"?><!DOCTYPE svg PUBLIC "-//W3C//DTD SVG 1.1//EN" "http://www.w3.org/Graphics/SVG/1.1/DTD/svg11.dtd"><svg t="1755593726811" class="icon" viewBox="0 0 1024 1024" version="1.1" xmlns="http://www.w3.org/2000/svg" p-id="2441" xmlns:xlink="http://www.w3.org/1999/xlink" width="200" height="200"><path d="M768 80a80 80 0 0 0-80 80v122.4a49.92 49.92 0 0 0-16-2.4c-27.84 0-27.84 16-55.84 16s-28-16-56-16v8l48 144L448 628.96V544a48 48 0 0 0-48-48H128a48 48 0 0 0-48 48V160a80 80 0 0 1 80-80z" fill="#CEE6F4" p-id="2442"></path><path d="M80 496m48 0l208 0q48 0 48 48l0 352q0 48-48 48l-208 0q-48 0-48-48l0-352q0-48 48-48Z" fill="#1B45AF" p-id="2443"></path><path d="M448 544v352a48 48 0 0 1-48 48h-64a48 48 0 0 0 48-48V544a48 48 0 0 0-48-48h64a48 48 0 0 1 48 48z" fill="#0A2872" p-id="2444"></path><path d="M144 560h176v64H144z" fill="#76B4E2" p-id="2445"></path><path d="M944 755.04A188.16 188.16 0 0 1 880 896v-16h-48a188.32 188.32 0 0 0 36.64-188.16 183.52 183.52 0 0 0-32-55.84L672 432h64l165.76 204a183.52 183.52 0 0 1 32 55.84 188.16 188.16 0 0 1 10.24 63.2z" fill="#2C7013" p-id="2446"></path><path d="M880 755.04A187.2 187.2 0 0 1 832 880h-80v64H588.96a188.32 188.32 0 0 1-133.6-55.36c-2.56-2.56-4.96-5.12-7.36-7.84V628.96L608 432h64l165.76 204a183.52 183.52 0 0 1 32 55.84 188.16 188.16 0 0 1 10.24 63.2z" fill="#458C28" p-id="2447"></path><path d="M752 880h128v64h-128zM752 816h128v64h-128zM752 752h128v64h-128z" fill="#AA9335" p-id="2448"></path><path d="M832 880a64 64 0 0 1-64 64h-16v-64zM832 816a64 64 0 0 1-64 64h-16v-64zM832 752a64 64 0 0 1-64 64h-16v-64z" fill="#D1B339" p-id="2449"></path><path d="M752 872a72 72 0 1 1-39.68-64 71.84 71.84 0 0 1 39.68 64z" fill="#AA9335" p-id="2450"></path><path d="M720 840a72 72 0 0 1-104.32 64 72 72 0 0 1 96-96 71.2 71.2 0 0 1 8.32 32z" fill="#D1B339" p-id="2451"></path><path d="M784 280v8l-48 144h-64l45.6-136.8a65.44 65.44 0 0 0 10.4 0.8c28 0 28-16 56-16z" fill="#2C7013" p-id="2452"></path><path d="M717.6 295.2L672 432h-64l-45.6-136.8L560 288v-8a44.64 44.64 0 0 1 24 5.92 56.32 56.32 0 0 0 32 10.08 45.6 45.6 0 0 0 24-5.76 56.32 56.32 0 0 1 32-10.24 49.92 49.92 0 0 1 16 2.4 36.64 36.64 0 0 1 8 3.52 73.12 73.12 0 0 0 21.6 9.28z" fill="#458C28" p-id="2453"></path><path d="M848 160v32H688v-32a80 80 0 0 1 160 0z" fill="#ACD5EA" p-id="2454"></path><path d="M336 960H128a64 64 0 0 1-64-64V544a64 64 0 0 1 64-64h208a64 64 0 0 1 64 64v160a16 16 0 0 1-32 0V544a32 32 0 0 0-32-32H128a32 32 0 0 0-32 32v352a32 32 0 0 0 32 32h208a32 32 0 0 0 32-32v-128a16 16 0 0 1 32 0v128a64 64 0 0 1-64 64z" fill="#0D182D" p-id="2455"></path><path d="M400 960h-64a16 16 0 0 1 0-32 32 32 0 0 0 32-32v-128a16 16 0 0 1 32 0v128a64 64 0 0 1-8.64 32H400a32 32 0 0 0 32-32V544a32 32 0 0 0-32-32h-8.64a64 64 0 0 1 8.64 32v160a16 16 0 0 1-32 0V544a32 32 0 0 0-32-32 16 16 0 0 1 0-32h64a64 64 0 0 1 64 64v352a64 64 0 0 1-64 64zM160 704H144a16 16 0 0 1 0-32h16a16 16 0 0 1 0 32zM240 704h-16a16 16 0 0 1 0-32h16a16 16 0 0 1 0 32z" fill="#0D182D" p-id="2456"></path><path d="M320 704h-16a16 16 0 0 1 0-32h16a16 16 0 0 1 0 32zM160 768H144a16 16 0 0 1 0-32h16a16 16 0 0 1 0 32zM240 768h-16a16 16 0 0 1 0-32h16a16 16 0 0 1 0 32zM320 768h-16a16 16 0 0 1 0-32h16a16 16 0 0 1 0 32zM160 832H144a16 16 0 0 1 0-32h16a16 16 0 0 1 0 32zM240 832h-16a16 16 0 0 1 0-32h16a16 16 0 0 1 0 32zM320 896a16 16 0 0 1-16-16v-64a16 16 0 0 1 32 0v64a16 16 0 0 1-16 16zM160 896H144a16 16 0 0 1 0-32h16a16 16 0 0 1 0 32zM240 896h-16a16 16 0 0 1 0-32h16a16 16 0 0 1 0 32zM320 640H144a16 16 0 0 1-16-16v-64a16 16 0 0 1 16-16h32a16 16 0 0 1 0 32h-16v32h144v-32h-64a16 16 0 0 1 0-32h80a16 16 0 0 1 16 16v64a16 16 0 0 1-16 16zM752 960H588.96a203.68 203.68 0 0 1-144.96-60c-2.72-2.88-5.44-5.6-8-8.64a16 16 0 0 1-4-10.56V628.96a16 16 0 0 1 3.52-10.08l82.08-100.96a16 16 0 0 1 24.96 20.16l-78.56 96v240a21.92 21.92 0 0 0 2.72 2.72 171.04 171.04 0 0 0 122.24 51.2H736v-48a16 16 0 0 1 16-16h128a16 16 0 0 1 7.68 1.92 172.8 172.8 0 0 0 30.4-168.64 169.76 169.76 0 0 0-28.64-51.2L728.32 448h-112l-34.4 42.08a16 16 0 0 1-22.4 2.4 16 16 0 0 1-2.4-22.56l39.04-48A16 16 0 0 1 608 416h128a16 16 0 0 1 12.48 5.92l165.76 204a196.96 196.96 0 0 1 33.92 60.64 204.48 204.48 0 0 1-57.6 222.08A16 16 0 0 1 864 896h-96v48a16 16 0 0 1-16 16z" fill="#0D182D" p-id="2457"></path><path d="M880 960h-128a16 16 0 0 1-16-16v-64a16 16 0 0 1 16-16h128a16 16 0 0 1 16 16v64a16 16 0 0 1-16 16z m-112-32h96v-32h-96z" fill="#0D182D" p-id="2458"></path><path d="M880 896h-128a16 16 0 0 1-16-16v-64a16 16 0 0 1 16-16h128a16 16 0 0 1 16 16v64a16 16 0 0 1-16 16z m-112-32h96v-32h-96z" fill="#0D182D" p-id="2459"></path><path d="M880 832h-128a16 16 0 0 1-16-16v-64a16 16 0 0 1 16-16h128a16 16 0 0 1 16 16v64a16 16 0 0 1-16 16z m-112-32h96v-32h-96z" fill="#0D182D" p-id="2460"></path><path d="M640 720h-32a16 16 0 0 1 0-32h32a16 16 0 0 0 0-32 48 48 0 0 1 0-96h32a16 16 0 0 1 0 32h-32a16 16 0 0 0 0 32 48 48 0 0 1 0 96z" fill="#D1B339" p-id="2461"></path><path d="M680 960a88.16 88.16 0 0 1-88-88 69.6 69.6 0 0 1 0-10.08 16 16 0 0 1 32 4.16v5.92a56 56 0 1 0 56-56 55.36 55.36 0 0 0-35.04 12.32 16 16 0 1 1-20.16-24.64A85.44 85.44 0 0 1 680 784a88 88 0 0 1 0 176z" fill="#0D182D" p-id="2462"></path><path d="M640 592a16 16 0 0 1-16-16v-32a16 16 0 0 1 32 0v32a16 16 0 0 1-16 16zM640 752a16 16 0 0 1-16-16v-32a16 16 0 0 1 32 0v32a16 16 0 0 1-16 16z" fill="#D1B339" p-id="2463"></path><path d="M736 448h-128a16 16 0 0 1-16-10.88l-48-144a19.04 19.04 0 0 1 0-5.12v-8a16 16 0 0 1 16-16 65.28 65.28 0 0 1 36 10.08 36.8 36.8 0 0 0 40 0A64 64 0 0 1 672 264a68.96 68.96 0 0 1 21.28 3.2 81.44 81.44 0 0 1 14.88 6.88 33.76 33.76 0 0 0 20 5.92 33.44 33.44 0 0 0 20-5.92A65.28 65.28 0 0 1 784 264a16 16 0 0 1 16 16v8a19.04 19.04 0 0 1 0 5.12l-48 144a16 16 0 0 1-16 10.88z m-116.48-32h104.96l37.76-113.12a64 64 0 0 1-34.24 9.12 66.24 66.24 0 0 1-35.84-9.92 52 52 0 0 0-8.96-4.48 36.16 36.16 0 0 0-11.36-1.6 33.28 33.28 0 0 0-19.84 5.92 65.28 65.28 0 0 1-36 10.08 64 64 0 0 1-34.24-9.12z" fill="#0D182D" p-id="2464"></path><path d="M568.96 496a16 16 0 0 1-10.08-3.52 16 16 0 0 1-2.4-22.56l33.6-41.28-45.28-135.52A19.04 19.04 0 0 1 544 288v-8a16 16 0 0 1 16-16 65.28 65.28 0 0 1 36 10.08 36.8 36.8 0 0 0 40 0A64 64 0 0 1 672 264V160a96 96 0 0 1 24.48-64H160a64 64 0 0 0-64 64v144a16 16 0 0 1-32 0v-144a96 96 0 0 1 96-96h608a16 16 0 0 1 0 32 64 64 0 0 0-64 64v122.4a16 16 0 0 1-6.72 12.96 16 16 0 0 1-14.4 2.24 32 32 0 0 0-11.04-1.6 33.28 33.28 0 0 0-19.84 5.92 65.28 65.28 0 0 1-36 10.08 64 64 0 0 1-34.24-9.12L624 426.88a16 16 0 0 1-2.72 15.2l-39.2 48a16 16 0 0 1-13.12 5.92zM448 644.96a14.72 14.72 0 0 1-5.28-0.96 16 16 0 0 1-10.72-15.04V544a32 32 0 0 0-32-32H128a32 32 0 0 0-32 32 16 16 0 0 1-32 0V368a16 16 0 0 1 32 0v120.64A64 64 0 0 1 128 480h272a64 64 0 0 1 64 64v39.84l53.6-65.92a16 16 0 0 1 24.96 20.16l-82.08 100.96a16 16 0 0 1-12.48 5.92z" fill="#0D182D" p-id="2465"></path><path d="M848 208H688a16 16 0 0 1-16-16v-32a96 96 0 0 1 192 0v32a16 16 0 0 1-16 16z m-144-32h128v-16a64 64 0 0 0-128 0zM192 320h-32a16 16 0 0 1 0-32h32a16 16 0 0 0 0-32 48 48 0 0 1 0-96h32a16 16 0 0 1 0 32h-32a16 16 0 0 0 0 32 48 48 0 0 1 0 96z" fill="#0D182D" p-id="2466"></path><path d="M192 192a16 16 0 0 1-16-16V144a16 16 0 0 1 32 0v32a16 16 0 0 1-16 16zM192 352a16 16 0 0 1-16-16v-32a16 16 0 0 1 32 0v32a16 16 0 0 1-16 16zM608 192H336a16 16 0 0 1 0-32h272a16 16 0 0 1 0 32zM464 272h-128a16 16 0 0 1 0-32h128a16 16 0 0 1 0 32zM464 352h-128a16 16 0 0 1 0-32h128a16 16 0 0 1 0 32z" fill="#0D182D" p-id="2467"></path><path d="M752 448H592a16 16 0 0 1 0-32h160a16 16 0 0 1 0 32z" fill="#AA9335" p-id="2468"></path><path d="M752 448a16 16 0 0 1-11.36-4.64 16 16 0 0 1 0-22.72l48-48a16 16 0 0 1 22.72 22.72l-48 48A16 16 0 0 1 752 448z" fill="#AA9335" p-id="2469"></path><path d="M816 464a16 16 0 0 1-3.84 0l-64-16a16 16 0 1 1 7.68-32l64 16a16 16 0 0 1-3.84 32z" fill="#AA9335" p-id="2470"></path></svg>