<?xml version="1.0" standalone="no"?><!DOCTYPE svg PUBLIC "-//W3C//DTD SVG 1.1//EN" "http://www.w3.org/Graphics/SVG/1.1/DTD/svg11.dtd"><svg t="1755593678268" class="icon" viewBox="0 0 1024 1024" version="1.1" xmlns="http://www.w3.org/2000/svg" p-id="1335" xmlns:xlink="http://www.w3.org/1999/xlink" width="200" height="200"><path d="M256 960h-96a16 16 0 0 1-16-16V720a48 48 0 0 1 48-48h96a16 16 0 0 1 0 32 16 16 0 0 0-16 16v224a16 16 0 0 1-16 16z m-80-32h64V720a48 48 0 0 1 2.72-16H192a16 16 0 0 0-16 16z" p-id="1336"></path><path d="M320 960h-64a16 16 0 0 1-16-16V720a48 48 0 0 1 48-48 48 48 0 0 1 48 48v224a16 16 0 0 1-16 16z m-48-32h32V720a14.88 14.88 0 0 0-4.64-11.04A16 16 0 0 0 288 704a16 16 0 0 0-16 16zM496 960h-96a16 16 0 0 1-16-16V608a48 48 0 0 1 48-48h96a16 16 0 0 1 0 32 16 16 0 0 0-16 16v336a16 16 0 0 1-16 16z m-80-32h64V608a48 48 0 0 1 2.72-16H432a16 16 0 0 0-16 16z" p-id="1337"></path><path d="M560 960h-64a16 16 0 0 1-16-16V608a48 48 0 0 1 48-48 48 48 0 0 1 48 48v336a16 16 0 0 1-16 16z m-48-32h32V608a14.88 14.88 0 0 0-4.64-11.04A16 16 0 0 0 528 592a16 16 0 0 0-16 16zM736 960h-96a16 16 0 0 1-16-16V480a48 48 0 0 1 48-48h96a16 16 0 0 1 0 32 16 16 0 0 0-16 16v464a16 16 0 0 1-16 16z m-80-32h64V480a48 48 0 0 1 2.72-16H672a16 16 0 0 0-16 16z" p-id="1338"></path><path d="M800 960h-64a16 16 0 0 1-16-16V480a48 48 0 0 1 48-48 48 48 0 0 1 48 48v464a16 16 0 0 1-16 16z m-48-32h32V480a14.88 14.88 0 0 0-4.64-11.04A16 16 0 0 0 768 464a16 16 0 0 0-16 16zM896 240a16 16 0 0 1-16-16V144h-80a16 16 0 0 1 0-32h96a16 16 0 0 1 16 16v96a16 16 0 0 1-16 16z" p-id="1339"></path><path d="M106.08 576H80a16 16 0 0 1 0-32h26.08a842.4 842.4 0 0 0 599.68-248.32L884.64 116.64a16 16 0 1 1 22.72 22.72L728.32 318.24A873.92 873.92 0 0 1 106.08 576z" p-id="1340"></path><path d="M944 960H80a16 16 0 0 1-16-16V80a16 16 0 0 1 32 0v848h848a16 16 0 0 1 0 32z" p-id="1341"></path></svg>