<?xml version="1.0" standalone="no"?><!DOCTYPE svg PUBLIC "-//W3C//DTD SVG 1.1//EN" "http://www.w3.org/Graphics/SVG/1.1/DTD/svg11.dtd"><svg t="1755593732606" class="icon" viewBox="0 0 1024 1024" version="1.1" xmlns="http://www.w3.org/2000/svg" p-id="2628" xmlns:xlink="http://www.w3.org/1999/xlink" width="200" height="200"><path d="M880 160v416a64 64 0 0 1-64 64H240a64 64 0 0 1-64-64V160a64 64 0 0 1 64-64h576a64 64 0 0 1 64 64z" fill="#76B4E2" p-id="2629"></path><path d="M240 160h576v416H240z" fill="#ACD5EA" p-id="2630"></path><path d="M240 160h512a416 416 0 0 1-416 416h-96V160z" fill="#CEE6F4" p-id="2631"></path><path d="M944 848a96 96 0 0 1-96 96H176a96 96 0 0 1-96-96h304l16 16h224l16-16z" fill="#0A2872" p-id="2632"></path><path d="M640 848l-16 16H400l-16-16 16-64h224l16 64z" fill="#5EA2CC" p-id="2633"></path><path d="M944 848H640l-16-64H400l-16 64H80l88.16-165.28A80 80 0 0 1 239.04 640h577.92a62.4 62.4 0 0 1 59.04 37.76z" fill="#1B45AF" p-id="2634"></path><path d="M816 656H240a80 80 0 0 1-80-80V304a16 16 0 0 1 32 0v272a48 48 0 0 0 48 48h576a48 48 0 0 0 29.44-10.24A48 48 0 0 0 864 576V160a48 48 0 0 0-48-48H240a48 48 0 0 0-48 48v80a16 16 0 0 1-32 0v-80a80 80 0 0 1 80-80h576a80 80 0 0 1 80 80v416a79.04 79.04 0 0 1-30.88 63.04A80 80 0 0 1 816 656z" fill="#0D182D" p-id="2635"></path><path d="M816 592H240a16 16 0 0 1-16-16V160a16 16 0 0 1 16-16h224a16 16 0 0 1 0 32H256v384h544V176H528a16 16 0 0 1 0-32h288a16 16 0 0 1 16 16v416a16 16 0 0 1-16 16zM848 960h-64a16 16 0 0 1 0-32h64a80 80 0 0 0 78.4-64H646.56l-11.2 11.36A16 16 0 0 1 624 880H400a16 16 0 0 1-11.36-4.64l-11.2-11.36H97.6a80 80 0 0 0 78.4 64h544a16 16 0 0 1 0 32H176a112 112 0 0 1-112-112 16 16 0 0 1 16-16h304a16 16 0 0 1 11.36 4.64l11.2 11.36h210.88l11.2-11.36A16 16 0 0 1 640 832h304a16 16 0 0 1 16 16 112 112 0 0 1-112 112z" fill="#0D182D" p-id="2636"></path><path d="M944 864H640a16 16 0 0 1-16-12.16L611.52 800H412.48L400 851.84a16 16 0 0 1-16 12.16H80a16 16 0 0 1-14.08-23.52l51.2-96a16 16 0 1 1 28.16 15.04L106.72 832h264.8l12.48-51.84a16 16 0 0 1 16-12.16h224a16 16 0 0 1 16 12.16l12.48 51.84h267.84l-59.2-148.32A46.72 46.72 0 0 0 816.96 656H240a64 64 0 0 0-56.96 34.24l-11.36 21.28a16 16 0 1 1-28.16-15.04l11.36-21.28a96 96 0 0 1 84.16-51.2H816a80 80 0 0 1 74.4 48l68 170.4a16 16 0 0 1-1.6 14.88 16 16 0 0 1-12.8 6.72z" fill="#0D182D" p-id="2637"></path></svg>